<svg width="187" height="80" viewBox="0 0 187 80" fill="none" xmlns="http://www.w3.org/2000/svg">
<path fill-rule="evenodd" clip-rule="evenodd" d="M124.329 45.0441C129.05 36.6983 142.4 32.8389 150.81 32.8849C162.411 33.5781 176.44 45.2713 178.234 51.6081L148.998 63.0625L124.329 45.0441Z" fill="#E8CB6A"/>
<path fill-rule="evenodd" clip-rule="evenodd" d="M56.6877 34.4694C61.4093 26.1237 74.7586 22.2643 83.1694 22.3103C94.7697 23.0035 108.799 34.6967 110.593 41.0335L81.3572 52.4879L56.6877 34.4694Z" fill="#E8CB6A"/>
<path d="M85.0826 35.9577C81.6295 38.0329 77.7828 39.0706 73.5505 39.0706C68.6375 39.0706 64.6595 37.3877 61.6246 34.0132C58.5817 30.6473 57.0643 26.1828 57.0643 20.6283C57.0643 14.9605 58.754 10.3042 62.125 6.66805C65.4961 3.03193 69.7693 1.2095 74.9448 1.2095C78.6931 1.2095 81.8428 1.86354 84.3854 3.15403V7.90628C81.6048 6.03147 78.2994 5.09856 74.4855 5.09856C70.6306 5.09856 67.4645 6.51115 64.9957 9.33633C62.5269 12.1615 61.2966 15.8238 61.2966 20.3231C61.2966 24.9533 62.4449 28.5981 64.7333 31.2402C67.0217 33.891 70.1302 35.2165 74.059 35.2165C76.7493 35.2165 79.0787 34.641 81.0471 33.5074V23.2355H73.5013V19.3553H85.0826V35.9577ZM106.974 39.0706C102.085 39.0706 98.173 37.3615 95.2367 33.9347C92.3004 30.5165 90.8239 26.0608 90.8239 20.5761C90.8239 14.6815 92.325 9.98151 95.3187 6.47623C98.3125 2.97094 102.397 1.2095 107.556 1.2095C112.313 1.2095 116.144 2.91856 119.047 6.31933C121.959 9.7287 123.411 14.1845 123.411 19.6867C123.411 25.6596 121.918 30.3858 118.941 33.8649C115.963 37.3353 111.977 39.0706 106.974 39.0706ZM107.261 5.09856C103.644 5.09856 100.707 6.48496 98.4436 9.25788C96.1881 12.0394 95.0562 15.6843 95.0562 20.1924C95.0562 24.7092 96.1553 28.3366 98.3616 31.0921C100.56 33.8388 103.439 35.2165 106.974 35.2165C110.755 35.2165 113.732 33.9085 115.914 31.2839C118.096 28.6592 119.178 24.9882 119.178 20.2709C119.178 15.4315 118.129 11.6993 116.013 9.05733C113.896 6.41524 110.976 5.09856 107.261 5.09856ZM130.186 38.4602V1.82862H139.987C142.964 1.82862 145.335 2.60463 147.074 4.14806C148.821 5.70021 149.698 7.72319 149.698 10.2083C149.698 12.2836 149.165 14.0886 148.107 15.6233C147.049 17.158 145.597 18.2479 143.735 18.8931V18.9977C146.057 19.2855 147.918 20.2185 149.313 21.7881C150.707 23.3663 151.404 25.4155 151.404 27.9355C151.404 31.0659 150.346 33.6033 148.23 35.5478C146.114 37.4924 143.448 38.4602 140.225 38.4602H130.186ZM134.221 5.70894V17.5416H138.355C140.561 17.5416 142.3 16.9747 143.571 15.8413C144.834 14.7077 145.466 13.1119 145.466 11.0454C145.466 7.48771 143.268 5.70894 138.855 5.70894H134.221ZM134.221 21.3957V34.5799H139.7C142.07 34.5799 143.908 33.9782 145.212 32.7924C146.524 31.5978 147.172 29.9585 147.172 27.8832C147.172 23.5582 144.4 21.3957 138.855 21.3957H134.221ZM162.428 38.4602H158.393V1.82862H162.428V38.4602Z" fill="#C2922B"/>
<path d="M82.463 34.7482C79.0099 36.8234 75.1632 37.8611 70.9309 37.8611C66.0179 37.8611 62.0399 36.1782 59.0051 32.8036C55.9621 29.4378 54.4447 24.9733 54.4447 19.4188C54.4447 13.751 56.1345 9.09466 59.5054 5.45854C62.8765 1.82242 67.1498 0 72.3252 0C76.0736 0 79.2232 0.654038 81.7658 1.94453V6.69677C78.9853 4.82196 75.6799 3.88906 71.8659 3.88906C68.011 3.88906 64.845 5.30165 62.3762 8.12683C59.9074 10.952 58.6771 14.6143 58.6771 19.1136C58.6771 23.7438 59.8254 27.3886 62.1137 30.0307C64.4021 32.6815 67.5107 34.0069 71.4395 34.0069C74.1298 34.0069 76.4591 33.4315 78.4275 32.2979V22.026H70.8817V18.1458H82.463V34.7482ZM104.354 37.8611C99.4658 37.8611 95.5534 36.152 92.6171 32.7252C89.6808 29.307 88.2044 24.8513 88.2044 19.3666C88.2044 13.472 89.7054 8.77201 92.6991 5.26672C95.6929 1.76144 99.7775 0 104.937 0C109.694 0 113.524 1.70905 116.428 5.10983C119.339 8.5192 120.791 12.975 120.791 18.4772C120.791 24.4501 119.298 29.1763 116.321 32.6553C113.344 36.1258 109.357 37.8611 104.354 37.8611ZM104.641 3.88906C101.024 3.88906 98.0878 5.27545 95.8241 8.04838C93.5685 10.8299 92.4367 14.4748 92.4367 18.9829C92.4367 23.4997 93.5357 27.1271 95.7421 29.8826C97.9402 32.6293 100.819 34.0069 104.354 34.0069C108.135 34.0069 111.113 32.699 113.295 30.0744C115.476 27.4497 116.559 23.7787 116.559 19.0614C116.559 14.2219 115.509 10.4898 113.393 7.84783C111.277 5.20574 108.357 3.88906 104.641 3.88906ZM127.566 37.2507V0.619116H137.368C140.345 0.619116 142.715 1.39513 144.454 2.93855C146.201 4.49071 147.079 6.51368 147.079 8.99875C147.079 11.0741 146.546 12.8791 145.487 14.4138C144.429 15.9485 142.978 17.0384 141.116 17.6836V17.7882C143.437 18.076 145.299 19.009 146.693 20.5786C148.088 22.1568 148.785 24.206 148.785 26.726C148.785 29.8564 147.727 32.3938 145.611 34.3383C143.494 36.2829 140.829 37.2507 137.605 37.2507H127.566ZM131.601 4.49944V16.3321H135.735C137.942 16.3321 139.68 15.7652 140.952 14.6318C142.215 13.4982 142.846 11.9024 142.846 9.83588C142.846 6.27821 140.648 4.49944 136.236 4.49944H131.601ZM131.601 20.1862V33.3704H137.08C139.451 33.3704 141.288 32.7687 142.592 31.5829C143.905 30.3883 144.552 28.749 144.552 26.6737C144.552 22.3486 141.78 20.1862 136.236 20.1862H131.601ZM159.808 37.2507H155.773V0.619116H159.808V37.2507Z" fill="#E0A931"/>
<path fill-rule="evenodd" clip-rule="evenodd" d="M86.0986 42.8344C94.3073 42.8344 97.0448 31.7127 114.333 30.4191C126.813 29.4853 144.428 40.189 157.841 40.5564C165.232 40.7588 173.376 33.0905 178.271 31.8146C184.867 30.0954 187 34.97 187 38.9836C187 61.6364 145.139 80 93.4999 80C41.8614 80 0 61.6364 0 38.9836C0 30.9248 6.60427 24.897 15.769 20.0917C22.235 16.7013 29.6849 13.2456 39.8687 12.5591C56.7742 11.4197 65.7917 42.8344 86.0986 42.8344Z" fill="#FCDD76"/>
<path fill-rule="evenodd" clip-rule="evenodd" d="M53.4678 51.7143C54.4537 51.9665 55.6444 51.9265 56.4508 51.8191C56.1748 51.3001 55.6514 50.7901 55.0084 50.425C54.8094 50.3591 54.5933 50.4016 54.3857 50.39C54.3052 50.1436 54.2758 49.8879 54.4512 49.6233C54.88 49.1295 55.0279 48.439 55.1748 47.7066L55.5658 45.999C56.202 45.0171 56.3104 43.73 56.3581 42.4941C56.6032 41.8753 57.0705 41.9285 57.1488 42.2122C57.3478 43.2779 57.7433 44.2796 58.2832 44.7558C60.1336 46.0765 65.5045 40.9094 63.8262 36.439C63.7068 35.8454 64.1712 35.1475 64.4526 34.6172C65.0099 33.8479 65.8289 34.0154 66.4677 34.2477C66.8191 34.3096 66.6598 33.6061 66.9703 33.0589C66.9868 32.7326 66.4225 32.1337 65.401 31.7959C64.4572 31.6525 64.0707 31.8809 63.3728 31.6155C63.2158 31.544 63.6317 30.906 63.3517 30.8125C63.042 30.8248 62.4878 30.4994 62.1307 30.5479C61.195 30.7138 61.4874 31.3115 61.1045 31.4482C59.0244 33.1888 59.3396 35.1982 59.4492 36.2997C57.8371 36.255 56.5816 35.2028 55.9376 34.1915C55.8568 32.7662 55.1513 30.2269 53.9042 30.2968C50.9682 30.4619 51.2908 32.9879 50.3759 33.1834C49.5419 33.2969 47.9855 33.1581 48.0982 31.8071C48.2109 30.4561 45.3673 26.9454 41.745 33.2612C40.9696 34.4407 38.4888 35.312 38.4983 37.8334C38.4633 41.1724 41.0213 41.6639 41.0202 42.4641C41.0572 45.3815 40.0273 44.9799 40.0734 46.3586C41.7051 48.0335 41.8772 49.6148 41.9165 51.4617C41.9705 51.8365 44.5431 51.6365 44.8352 51.5049C45.0632 51.374 44.4577 50.5521 43.9255 50.2656L43.2147 50.2355C43.0028 48.8957 42.7086 47.5658 42.2766 46.2456C42.7392 45.7456 42.9462 43.8821 43.968 41.8824C44.0742 41.5421 44.1073 41.1238 44.0392 40.7447C48.3669 43.0415 49.1873 44.1026 52.5627 42.3682C53.3515 42.3852 52.4827 44.0085 52.6029 44.5317C53.0653 45.1912 53.0362 45.921 53.1651 46.3364C53.2002 46.7071 52.9879 46.951 53.023 47.2731C53.3595 47.9679 53.4878 48.5439 53.4828 49.248C53.4315 49.717 53.2608 50.0589 53.3291 50.6549L53.4678 51.7143Z" fill="#89521D"/>
<path fill-rule="evenodd" clip-rule="evenodd" d="M81.8679 57.1555C82.6855 57.3646 83.6729 57.3314 84.3416 57.2423C84.1127 56.8119 83.6787 56.3891 83.1455 56.0862C82.9804 56.0316 82.8013 56.0669 82.629 56.0574C82.5624 55.853 82.538 55.6409 82.6834 55.4215C83.0391 55.0121 83.1615 54.4394 83.2834 53.8321L83.6076 52.4161C84.1352 51.6019 84.2251 50.5346 84.2648 49.5097C84.4679 48.9965 84.8555 49.0407 84.9204 49.2759C85.0853 50.1597 85.4133 50.9904 85.8611 51.3853C87.3955 52.4804 91.8492 48.1956 90.4576 44.4886C90.3585 43.9964 90.7437 43.4176 90.977 42.9779C91.4391 42.34 92.1183 42.4789 92.648 42.6715C92.9394 42.7228 92.8073 42.1395 93.0648 41.6857C93.0784 41.4151 92.6106 40.9184 91.7635 40.6384C90.9807 40.5195 90.6602 40.7088 90.0816 40.4888C89.9513 40.4295 90.2963 39.9003 90.0641 39.8229C89.8072 39.8331 89.3477 39.5632 89.0515 39.6035C88.2757 39.741 88.5182 40.2366 88.2006 40.3501C86.4757 41.7935 86.7371 43.4597 86.8279 44.3731C85.4912 44.3361 84.4499 43.4635 83.916 42.6249C83.8491 41.4429 83.2639 39.3372 82.2298 39.3952C79.7951 39.5321 80.0628 41.6269 79.304 41.7889C78.6124 41.883 77.3219 41.768 77.4153 40.6476C77.5088 39.5274 75.1506 36.6162 72.147 41.8535C71.5039 42.8315 69.4468 43.5541 69.4547 45.6448C69.4256 48.4136 71.5467 48.8213 71.5458 49.485C71.5766 51.904 70.7225 51.571 70.7608 52.7143C72.1138 54.1032 72.2565 55.4144 72.2892 56.9461C72.3339 57.2569 74.4672 57.0909 74.7096 56.9818C74.8986 56.8733 74.3964 56.1917 73.9551 55.9542L73.3657 55.9292C73.1899 54.8182 72.9459 53.7153 72.5877 52.6206C72.9714 52.206 73.143 50.6608 73.9904 49.0024C74.0784 48.7204 74.1058 48.3734 74.0494 48.059C77.6381 49.9637 78.3183 50.8435 81.1173 49.4053C81.7716 49.4195 81.0512 50.7656 81.1508 51.1993C81.5341 51.7462 81.51 52.3515 81.617 52.6958C81.6461 53.0032 81.47 53.2056 81.4991 53.4727C81.7782 54.0488 81.8845 54.5265 81.8804 55.1103C81.8379 55.4993 81.6963 55.7828 81.753 56.277L81.8679 57.1555Z" fill="#89521D"/>
</svg>
